<svg width="252" height="94" viewBox="0 0 252 94" fill="none" xmlns="http://www.w3.org/2000/svg">
<g filter="url(#filter0_d)">
<path d="M81.536 72.024C77.312 72.024 73.536 71.2133 70.208 69.592C66.9227 67.9707 64.3627 65.7093 62.528 62.808C60.6933 59.864 59.776 56.5147 59.776 52.76V26.968H74.24V52.76C74.24 55.32 74.8587 57.24 76.096 58.52C77.3333 59.8 79.1467 60.44 81.536 60.44C83.9253 60.44 85.7387 59.8 86.976 58.52C88.2133 57.1973 88.832 55.2773 88.832 52.76V26.968H103.296V52.76C103.296 56.5147 102.379 59.864 100.544 62.808C98.7093 65.7093 96.128 67.9707 92.8 69.592C89.5147 71.2133 85.76 72.024 81.536 72.024ZM132.599 72.024C127.991 72.024 123.895 71.0427 120.311 69.08C116.769 67.1173 113.996 64.408 111.991 60.952C110.028 57.4533 109.047 53.4853 109.047 49.048C109.047 44.568 110.028 40.5787 111.991 37.08C113.996 33.5813 116.769 30.872 120.311 28.952C123.895 26.9893 127.991 26.008 132.599 26.008C137.207 26.008 141.281 26.9893 144.823 28.952C148.407 30.872 151.18 33.5813 153.143 37.08C155.148 40.536 156.151 44.5253 156.151 49.048C156.151 53.4853 155.148 57.4533 153.143 60.952C151.18 64.408 148.407 67.1173 144.823 69.08C141.239 71.0427 137.164 72.024 132.599 72.024ZM132.599 60.376C135.287 60.376 137.484 59.3307 139.191 57.24C140.94 55.1493 141.815 52.3973 141.815 48.984C141.815 46.7227 141.409 44.7173 140.599 42.968C139.831 41.176 138.743 39.7893 137.335 38.808C135.927 37.784 134.327 37.272 132.535 37.272C130.785 37.272 129.207 37.784 127.799 38.808C126.391 39.7893 125.303 41.176 124.535 42.968C123.767 44.7173 123.383 46.7227 123.383 48.984C123.383 52.3973 124.236 55.1493 125.943 57.24C127.649 59.3307 129.868 60.376 132.599 60.376ZM162.285 26.968H175.149L192.685 50.712V26.968H204.141V71H191.341L173.677 48.088V71H162.285V26.968ZM232.953 72.024C228.643 72.024 224.761 71 221.305 68.952C217.849 66.8613 215.139 64.024 213.177 60.44C211.214 56.856 210.233 52.9093 210.233 48.6C210.233 44.4613 211.214 40.664 213.177 37.208C215.182 33.752 217.955 31.0213 221.497 29.016C225.038 27.0107 229.07 26.008 233.593 26.008C236.067 26.008 238.457 26.2853 240.761 26.84C243.107 27.3947 245.219 28.184 247.097 29.208L242.873 39.128C239.971 37.9333 237.262 37.336 234.745 37.336C231.459 37.336 228.921 38.4027 227.128 40.536C225.337 42.6267 224.441 45.3787 224.441 48.792C224.441 51.0107 224.846 53.016 225.657 54.808C226.467 56.5573 227.598 57.944 229.049 58.968C230.542 59.992 232.227 60.504 234.105 60.504C235.129 60.504 235.982 60.4187 236.665 60.248V49.944L247.737 48.664V68.696C242.915 70.9147 237.987 72.024 232.953 72.024Z" fill="#DE354C"/>
</g>
<path d="M11.67 48.48C9.67 48.48 7.85 48.01 6.21 47.07C4.59 46.11 3.3 44.81 2.34 43.17C1.4 41.51 0.93 39.68 0.93 37.68C0.93 35.64 1.39 33.8 2.31 32.16C3.23 30.52 4.49 29.24 6.09 28.32C7.69 27.38 9.49 26.91 11.49 26.91C12.57 26.91 13.63 27.04 14.67 27.3C15.71 27.56 16.6 27.93 17.34 28.41L16.53 33.06C15.09 32.52 13.79 32.25 12.63 32.25C11.03 32.25 9.8 32.72 8.94 33.66C8.08 34.58 7.65 35.91 7.65 37.65C7.65 39.35 8.1 40.68 9 41.64C9.92 42.58 11.19 43.05 12.81 43.05C13.43 43.05 14.01 42.99 14.55 42.87C15.09 42.75 15.75 42.53 16.53 42.21L17.37 46.95C15.63 47.97 13.73 48.48 11.67 48.48ZM20.0555 27.36H26.8055V35.58H33.1955V27.36H39.9755V48H33.1955V39.9H26.8055V48H20.0555V27.36Z" fill="#3C1874"/>
<path d="M22.16 54.92H17.87V50.36H33.44V54.92H29.15V71H22.16V54.92ZM51.8945 71.48C48.1345 71.48 45.8345 69.74 44.9945 66.26L44.2445 63.17H42.8345V71H36.2645V50.36H45.3545C47.0745 50.36 48.5845 50.62 49.8845 51.14C51.2045 51.64 52.2245 52.35 52.9445 53.27C53.6645 54.19 54.0245 55.25 54.0245 56.45C54.0245 57.79 53.6945 58.92 53.0345 59.84C52.3945 60.74 51.3945 61.48 50.0345 62.06C50.1745 62.82 50.3345 63.51 50.5145 64.13C50.7545 64.89 51.0845 65.42 51.5045 65.72C51.9245 66.02 52.5345 66.17 53.3345 66.17C53.6145 66.17 54.0545 66.13 54.6545 66.05V70.94C53.7145 71.3 52.7945 71.48 51.8945 71.48ZM43.9745 58.97C45.4545 58.97 46.4945 58.81 47.0945 58.49C47.7145 58.15 48.0245 57.58 48.0245 56.78C48.0245 56.1 47.7745 55.61 47.2745 55.31C46.7745 54.99 45.9845 54.83 44.9045 54.83H42.8345V58.97H43.9745Z" fill="#3C1874"/>
<defs>
<filter id="filter0_d" x="55.776" y="26.008" width="195.961" height="54.016" filterUnits="userSpaceOnUse" color-interpolation-filters="sRGB">
<feFlood flood-opacity="0" result="BackgroundImageFix"/>
<feColorMatrix in="SourceAlpha" type="matrix" values="0 0 0 0 0 0 0 0 0 0 0 0 0 0 0 0 0 0 127 0"/>
<feOffset dy="4"/>
<feGaussianBlur stdDeviation="2"/>
<feColorMatrix type="matrix" values="0 0 0 0 0 0 0 0 0 0 0 0 0 0 0 0 0 0 0.25 0"/>
<feBlend mode="normal" in2="BackgroundImageFix" result="effect1_dropShadow"/>
<feBlend mode="normal" in="SourceGraphic" in2="effect1_dropShadow" result="shape"/>
</filter>
</defs>
</svg>
